<svg width="724" height="540" viewBox="0 0 724 540" fill="none" xmlns="http://www.w3.org/2000/svg">
<path d="M723.02 91.1214L677.779 269.05L588.133 90.8457L498.487 269.05L566.417 536.15H836.191L723.02 91.1214Z" fill="#2B3366"/>
<path d="M839.526 535.325L726.355 90.2967L719.673 91.9505L832.844 536.979L839.526 535.325ZM566.273 539.598H836.046V532.706H566.273V539.598ZM495.001 269.879L562.932 536.979L569.613 535.325L501.683 268.225L495.001 269.879ZM584.926 89.3319L495.28 267.536L501.544 270.568L591.19 92.364L584.926 89.3319ZM680.836 267.536L591.19 89.3319L584.926 92.364L674.572 270.568L680.836 267.536ZM719.673 90.1588L674.432 268.225L681.114 269.879L726.355 91.8127L719.673 90.1588ZM723.014 91.1236H719.534C719.534 91.1236 719.534 91.6749 719.534 91.9505L722.875 91.1236H723.014ZM836.185 536.152V539.598C837.299 539.598 838.273 539.046 838.969 538.219C839.665 537.392 839.804 536.29 839.665 535.325L836.324 536.152H836.185ZM566.412 536.152L563.071 536.979C563.489 538.495 564.881 539.598 566.412 539.598V536.152ZM498.481 269.052L495.419 267.536C495.001 268.225 495.001 269.052 495.14 269.879L498.481 269.052ZM588.127 90.8479V87.4023C586.874 87.4023 585.622 88.0915 585.065 89.3319L588.127 90.8479ZM588.127 90.8479L591.19 89.3319C590.633 88.2293 589.38 87.4023 588.127 87.4023V90.8479ZM677.773 269.052L674.711 270.568C675.407 271.809 676.799 272.636 678.191 272.498C679.583 272.36 680.836 271.257 681.253 269.879L677.912 269.052H677.773ZM723.014 90.9858H726.494C726.494 89.1941 725.241 87.8158 723.432 87.5402C721.622 87.2646 720.091 88.3671 719.673 90.1588L723.014 90.9858Z" fill="#2B3366"/>
<path d="M453.235 91.1245H453.095L325.726 344.442H460.612L498.475 269.053L453.235 91.1245Z" fill="#2B3366"/>
<path d="M501.827 268.366L456.586 90.2991L449.905 91.9529L495.145 270.019L501.827 268.366ZM463.686 346.097L501.549 270.846L495.285 267.814L457.422 343.065L463.686 346.097ZM325.737 348.027H460.623V341.136H325.737V348.027ZM449.905 89.7478L322.535 343.065L328.799 346.097L456.169 92.7799L449.905 89.7478ZM453.942 87.956H453.802L452.132 94.5715H452.271L453.942 87.956ZM453.106 91.2638L456.447 90.4369C456.03 88.783 454.359 87.6804 452.689 87.8182C450.879 88.0939 449.626 89.4721 449.626 91.2638H453.106ZM498.347 269.33L501.409 270.846C501.827 270.157 501.827 269.33 501.688 268.503L498.347 269.33ZM460.484 344.581V348.027C461.737 348.027 462.99 347.338 463.547 346.097L460.484 344.581ZM325.597 344.581L322.535 343.065C321.978 344.168 322.117 345.408 322.674 346.373C323.37 347.338 324.484 348.027 325.597 348.027V344.581ZM452.967 91.2638L453.802 87.956C452.271 87.5426 450.601 88.3695 449.905 89.7478L452.967 91.2638ZM453.106 91.2638L452.271 94.5715C453.246 94.8472 454.359 94.5715 455.194 93.8824C456.03 93.1933 456.586 92.2285 456.586 91.126H453.106V91.2638Z" fill="#2B3366"/>
<path d="M453.235 90.8457V91.1214L498.476 269.05L588.122 90.8457H453.235Z" fill="#2B3366"/>
<path d="M588.125 87.4023H453.238V94.2935H588.125V87.4023ZM501.681 270.568L591.327 92.364L585.062 89.3319L495.416 267.536L501.681 270.568ZM449.897 91.8127L495.138 269.879L501.82 268.225L456.579 90.1588L449.897 91.8127ZM588.264 90.8479L591.327 92.364C591.883 91.2614 591.744 90.021 591.187 89.0563C590.631 88.0915 589.378 87.4023 588.264 87.4023V90.8479ZM498.618 269.052L495.277 269.879C495.695 271.257 496.808 272.36 498.34 272.498C499.732 272.636 501.124 271.947 501.82 270.568L498.757 269.052H498.618ZM453.377 90.9858H449.897C449.897 90.9858 449.897 91.537 449.897 91.8127L453.238 90.9858H453.377ZM453.377 90.8479V87.4023C451.429 87.4023 449.897 88.9184 449.897 90.8479H453.377Z" fill="#2B3366"/>
<path d="M1172.77 -288.163L724.683 -176.389L903.001 -132.011L723.013 -43.253V-42.426L903.001 46.3316L1172.77 -20.9257V-288.163Z" fill="#2B3366"/>
<path d="M1176.25 -20.9213V-288.159H1169.29V-20.9213H1176.25ZM903.831 49.6437L1173.6 -17.6136L1171.93 -24.2291L902.161 43.0283L903.831 49.6437ZM721.477 -39.2517L901.465 49.5059L904.527 43.3039L724.539 -45.4537L721.477 -39.2517ZM719.528 -43.2486V-42.4216H726.488V-43.2486H719.528ZM901.465 -135.038L721.477 -46.2806L724.539 -40.0787L904.527 -128.836L901.465 -135.038ZM723.843 -173.077L902.161 -128.698L903.831 -135.314L725.514 -179.693L723.843 -173.077ZM1171.93 -291.467L723.843 -179.831L725.514 -173.215L1173.6 -284.851L1171.93 -291.467ZM1172.77 -20.9213L1173.6 -17.6136C1175.14 -18.0271 1176.25 -19.4053 1176.25 -20.9213H1172.77ZM902.996 46.336L901.465 49.3681C902.161 49.7815 902.996 49.7815 903.831 49.6437L902.996 46.336ZM723.008 -42.4216H719.528C719.528 -41.1812 720.224 -39.9408 721.477 -39.3895L723.008 -42.4216ZM723.008 -43.2486L721.477 -46.2806C720.363 -45.7293 719.528 -44.489 719.528 -43.2486H723.008ZM902.996 -132.006L904.527 -128.974C905.78 -129.663 906.615 -131.041 906.476 -132.42C906.337 -133.798 905.223 -135.038 903.831 -135.452L902.996 -132.144V-132.006ZM724.678 -176.385L723.843 -179.693C722.312 -179.279 721.198 -177.901 721.198 -176.385C721.198 -174.869 722.312 -173.491 723.843 -173.077L724.678 -176.385ZM1172.77 -288.021H1176.25C1176.25 -289.124 1175.69 -290.088 1174.86 -290.778C1174.02 -291.467 1172.91 -291.604 1171.93 -291.467L1172.77 -288.159V-288.021Z" fill="#2B3366"/>
<path d="M723.013 91.1236L979.144 217.369V83.819L903.001 46.3313L723.013 91.1236Z" fill="#2B3366"/>
<path d="M902.165 42.8866L722.177 87.8167L723.848 94.4322L903.836 49.5021L902.165 42.8866ZM980.675 80.65L904.671 43.1623L901.609 49.3643L977.613 86.852L980.675 80.65ZM982.624 217.37V83.8199H975.664V217.37H982.624ZM721.481 94.2944L977.613 220.54L980.675 214.338L724.544 88.0924L721.481 94.2944ZM723.013 91.1245L722.177 87.8167C720.646 88.2302 719.532 89.6084 719.532 91.1245H723.013ZM903.001 46.1944L904.532 43.1623C903.836 42.7488 903.001 42.7488 902.165 42.8866L903.001 46.1944ZM979.005 83.682H982.485C982.485 82.4416 981.789 81.2013 980.536 80.65L979.005 83.682ZM979.005 217.232L977.474 220.264C978.587 220.815 979.84 220.677 980.814 220.126C981.789 219.437 982.485 218.335 982.485 217.232H979.005ZM722.873 90.9867H719.393C719.393 92.2271 720.089 93.4674 721.342 94.0187L722.873 90.9867Z" fill="#2B3366"/>
<path d="M726.488 91.1267C726.488 89.1972 724.957 87.6812 723.008 87.6812C721.059 87.6812 719.528 89.1972 719.528 91.1267H726.488ZM719.528 91.1267C719.528 93.0562 721.059 94.5723 723.008 94.5723C724.957 94.5723 726.488 93.0562 726.488 91.1267H719.528Z" fill="#2B3366"/>
<path d="M723.013 90.8504H723.152L723.013 91.126L903.001 46.3338L723.013 -42.4238V90.8504Z" fill="#2B3366"/>
<path d="M719.532 -42.4255V90.8487H726.493V-42.4255H719.532ZM904.532 43.1621L724.544 -45.5955L721.481 -39.3934L901.469 49.3642L904.532 43.1621ZM723.848 94.4321L903.836 49.502L902.165 42.8865L722.177 87.8166L723.848 94.4321ZM722.873 -42.4255L724.405 -45.4577C723.291 -46.0089 722.038 -45.8711 721.064 -45.3198C720.089 -44.6307 719.393 -43.5281 719.393 -42.4255H722.873ZM902.861 46.3321L903.697 49.6398C905.089 49.2263 906.202 48.1238 906.341 46.6077C906.481 45.2295 905.785 43.8513 904.393 43.1621L902.861 46.1943V46.3321ZM722.873 91.2622H719.393C719.393 92.3648 719.95 93.3295 720.785 94.0186C721.621 94.7077 722.734 94.8456 723.709 94.7077L722.873 91.4V91.2622ZM722.873 91.2622L719.393 90.573C719.393 90.573 719.393 90.9865 719.393 91.2622H722.873ZM722.873 91.1243L726.353 91.8134C726.493 90.8487 726.353 89.7461 725.657 88.9192C724.961 88.0922 723.987 87.6788 723.013 87.6788V91.1243H722.873ZM722.873 91.1243H719.393C719.393 93.0538 720.925 94.5699 722.873 94.5699V91.1243Z" fill="#2B3366"/>
<path d="M726.488 91.1267C726.488 89.1972 724.957 87.6812 723.008 87.6812C721.059 87.6812 719.528 89.1972 719.528 91.1267H726.488ZM719.528 91.1267C719.528 93.0562 721.059 94.5723 723.008 94.5723C724.957 94.5723 726.488 93.0562 726.488 91.1267H719.528Z" fill="#2B3366"/>
<path d="M453.248 -42.4252V-43.2522L273.26 -132.01L3.48648 -64.7524V202.347L451.438 90.7112L273.26 46.3324L453.248 -42.4252Z" fill="#2B3366"/>
<path d="M274.785 49.3645L454.773 -39.3931L451.71 -45.5951L271.722 43.1625L274.785 49.3645ZM452.406 87.4035L274.089 42.8868L272.418 49.5023L450.736 94.0189L452.406 87.4035ZM4.31526 205.793L452.267 94.1568L450.597 87.5413L2.64484 199.04L4.31526 205.655V205.793ZM0 -64.7524V202.347H6.9601V-64.7524H0ZM272.418 -135.317L2.64484 -68.0602L4.31526 -61.4447L274.089 -128.702L272.418 -135.317ZM454.773 -46.2842L274.785 -135.042L271.722 -128.84L451.71 -40.0822L454.773 -46.2842ZM456.722 -42.2874V-43.1143H449.761V-42.2874H456.722ZM273.253 46.4703L271.722 43.4381C270.469 44.1273 269.634 45.5055 269.773 46.8837C269.913 48.2619 271.026 49.5023 272.418 49.9158L273.253 46.608V46.4703ZM451.571 90.9869L452.406 94.2946C453.937 93.8811 455.051 92.5029 455.051 90.9869C455.051 89.4708 453.937 88.0926 452.406 87.6791L451.571 90.9869ZM3.48005 202.347H0C0 203.45 0.556808 204.415 1.39202 205.104C2.22723 205.793 3.34085 205.931 4.31526 205.793L3.48005 202.485V202.347ZM3.48005 -64.7524L2.64484 -68.0602C1.11362 -67.6467 0 -66.2684 0 -64.7524H3.48005ZM273.253 -132.01L274.785 -135.042C274.089 -135.455 273.253 -135.455 272.418 -135.317L273.253 -132.01ZM453.241 -43.2521H456.722C456.722 -44.4925 456.025 -45.7329 454.773 -46.2842L453.241 -43.2521ZM453.241 -42.4252L454.773 -39.3931C455.886 -39.9444 456.722 -41.1848 456.722 -42.4252H453.241Z" fill="#2B3366"/>
<path d="M723.154 90.9876V87.542C722.041 87.542 720.927 88.0933 720.231 89.058C719.535 90.0228 719.396 91.2632 719.814 92.228L723.015 90.9876H723.154ZM723.154 90.9876H726.635C726.635 89.058 725.103 87.542 723.154 87.542V90.9876ZM723.154 91.1254L719.953 92.3658C720.51 93.8818 722.18 94.8466 723.85 94.4331C725.521 94.1575 726.635 92.6414 726.635 90.9876H723.154V91.1254Z" fill="#2B3366"/>
<path d="M723.013 91.0982L723.14 90.8457H723.013V91.0982Z" fill="#2B3366"/>
<path d="M722.873 90.8479V87.4023C720.925 87.4023 719.393 88.9184 719.393 90.8479H722.873ZM722.873 90.8479L726.353 91.5371C726.493 90.5723 726.353 89.4697 725.657 88.6427C724.961 87.8158 723.987 87.4023 723.013 87.4023V90.8479H722.873ZM722.873 90.9858H719.393C719.393 92.7774 720.785 94.2935 722.595 94.4313C724.405 94.5691 725.936 93.4665 726.353 91.6749L722.873 90.9858Z" fill="#2B3366"/>
<path d="M453.25 90.8476V90.2964L451.441 90.7098L453.111 91.1233V90.8476H453.25Z" fill="#2B3366"/>
<path d="M456.168 92.6434V92.3677L450.043 89.3357V89.6113L456.168 92.6434ZM450.739 94.1594L452.27 94.5729L453.802 87.8196L452.27 87.4061L450.739 94.1594ZM452.27 86.9927L450.6 87.4061L452.41 94.0216L454.08 93.6081L452.27 86.9927ZM456.725 90.9895V90.4382H449.765V90.9895H456.725ZM453.245 90.9895V87.544C451.992 87.544 450.739 88.2331 450.182 89.4735L453.245 90.9895ZM453.245 91.2652L452.41 94.5729C453.941 94.9864 455.611 94.1595 456.307 92.7812L453.245 91.2652ZM451.714 90.8517L450.739 87.544C449.208 87.9574 448.094 89.3357 448.234 90.9895C448.234 92.5056 449.347 93.8838 450.878 94.2972L451.714 90.9895V90.8517ZM453.384 90.4382H456.864C456.864 89.3357 456.307 88.3709 455.472 87.6818C454.637 86.9927 453.523 86.8548 452.41 87.1305L453.384 90.4382ZM453.384 90.9895V94.4351C455.333 94.4351 456.864 92.919 456.864 90.9895H453.384Z" fill="#2B3366"/>
<path d="M453.236 91.0982L453.109 90.8457V91.0982H453.236Z" fill="#2B3366"/>
<path d="M453.093 90.9835L452.258 94.2912C453.232 94.5669 454.346 94.2913 455.32 93.74C456.155 93.0509 456.712 92.0861 456.712 90.9835H453.232H453.093ZM453.093 90.9835L449.891 89.4675C449.474 90.4322 449.474 91.5348 449.891 92.3617C450.309 93.3265 451.144 94.0156 452.119 94.2912L452.954 90.9835H453.093ZM453.093 90.8457L456.573 90.1566C456.295 88.6405 455.042 87.5379 453.65 87.4001C452.119 87.2623 450.727 87.9515 450.031 89.3297L453.232 90.8457H453.093ZM453.093 90.9835H456.573C456.573 90.9835 456.573 90.5701 456.573 90.2944L453.093 90.9835Z" fill="#2B3366"/>
<path d="M453.236 91.0982V90.8457H453.109L453.236 91.0982Z" fill="#2B3366"/>
<path d="M453.244 90.8479V87.4023C452.269 87.4023 451.156 87.8158 450.599 88.6427C450.042 89.4697 449.624 90.4345 449.903 91.5371L453.383 90.8479H453.244ZM453.244 90.8479H456.724C456.724 88.9184 455.192 87.4023 453.244 87.4023V90.8479ZM453.244 90.9858L449.764 91.6749C450.181 93.4665 451.712 94.5691 453.522 94.4313C455.332 94.2935 456.724 92.7774 456.724 90.9858H453.244Z" fill="#2B3366"/>
</svg>
