<svg width="442" height="47" viewBox="0 0 442 47" fill="none" xmlns="http://www.w3.org/2000/svg">
<path d="M26.8902 16.0725L32.2374 5.37803H26.8593L24.7328 9.64656L21.5121 0H10.7407L16.1187 16.1033L16.0416 16.1187L5.37803 10.7869V16.1649L9.60033 18.2761L0 21.4659V32.2528L16.1187 26.8593V16.1341H26.8593V26.8902V26.8748H16.1033L16.1187 26.921L10.7407 37.6462H16.1187L18.2607 33.3623L21.4813 42.9934H32.2528L26.8748 26.9056L26.9056 26.8902L37.6154 32.2528V26.8748L33.3315 24.7328L42.9934 21.4967V10.7407L26.8902 16.1033V16.0725Z" fill="white"/>
<path d="M55.3213 0H58.3416V13.761H65.4456V0H68.4659V13.761H70.4537V20.5105H67.5413V16.5502H55.3367V0H55.3213Z" fill="white"/>
<path d="M73.1968 0H76.2171V13.761H83.321V0H86.3414V13.761H88.3292V20.5105H85.4168V16.5502H73.2122V0H73.1968Z" fill="white"/>
<path d="M91.0721 0H94.262L99.2702 6.51836L104.14 0H107.33V16.5348H104.448V4.08361L99.5167 10.5711H98.9003L93.9846 4.17607V16.5348H91.0721V0Z" fill="white"/>
<path d="M67.0329 42.978H55.8916V40.5432L59.2201 37.3071C62.7336 33.9478 63.6119 32.6226 63.6119 31.1432C63.6119 29.6639 62.6874 28.6468 61.131 28.6468C59.8211 28.6468 58.5421 29.4635 58.3418 31.2819L55.3677 30.6963C55.907 27.4911 58.3418 25.873 61.2696 25.873C64.5519 25.873 66.6939 28.015 66.6939 31.0507C66.6939 33.3468 65.3687 35.0419 61.6087 38.6786L60.1447 40.1271H67.0329V42.9934V42.978Z" fill="white"/>
<path d="M69.3905 34.4872C69.3905 29.0321 71.8869 25.8577 75.7239 25.8577C79.561 25.8577 82.0266 29.0321 82.0266 34.4872C82.0266 39.9423 79.5302 43.2091 75.7239 43.2091C71.9177 43.2091 69.3905 40.0039 69.3905 34.4872ZM72.4571 34.4872C72.4571 38.0623 73.3817 40.4354 75.7239 40.4354C78.0662 40.4354 78.9446 38.0777 78.9446 34.4872C78.9446 30.8967 78.0046 28.6314 75.7239 28.6314C73.4433 28.6314 72.4571 30.9891 72.4571 34.4872Z" fill="white"/>
<path d="M95.6796 42.978H84.5383V40.5432L87.8669 37.3071C91.3803 33.9478 92.2587 32.6226 92.2587 31.1432C92.2587 29.6639 91.3341 28.6468 89.7777 28.6468C88.4678 28.6468 87.1888 29.4635 86.9885 31.2819L84.0144 30.6963C84.5537 27.4911 86.9885 25.873 89.9164 25.873C93.1987 25.873 95.3406 28.015 95.3406 31.0507C95.3406 33.3468 94.0154 35.0419 90.2554 38.6786L88.7915 40.1271H95.6796V42.9934V42.978Z" fill="white"/>
<path d="M104.772 39.3721H97.1437V36.8295L104.016 26.0889H107.73V36.6446H110.119V39.3721H107.73V42.978H104.787V39.3721H104.772ZM104.772 36.6446V29.6794L100.318 36.6446H104.772Z" fill="white"/>
<path d="M143.851 15.4098C139.444 15.3944 136.315 12.6052 136.315 8.53705C136.315 4.46885 139.505 1.67967 143.851 1.67967V0H146.856V1.67967C151.309 1.7259 154.391 4.48426 154.391 8.53705C154.391 12.5898 151.232 15.4098 146.856 15.4098V17.4593H143.851V15.4098ZM143.851 12.6977V4.34557C141.077 4.34557 139.336 6.07148 139.336 8.53705C139.336 11.0026 141.077 12.6977 143.851 12.6977ZM146.856 4.34557V12.6977C149.629 12.6977 151.371 11.0026 151.371 8.53705C151.371 6.07148 149.629 4.34557 146.856 4.34557Z" fill="white"/>
<path d="M164.654 0.246338C169.554 0.246338 173.006 3.82142 173.006 8.73716C173.006 13.6529 169.539 17.228 164.654 17.228C159.769 17.228 156.302 13.6375 156.302 8.73716C156.302 3.83683 159.769 0.246338 164.654 0.246338ZM164.654 3.02011C161.495 3.02011 159.43 5.28535 159.43 8.72175C159.43 12.1581 161.495 14.4234 164.654 14.4234C167.813 14.4234 169.878 12.1581 169.878 8.72175C169.878 5.28535 167.813 3.02011 164.654 3.02011Z" fill="white"/>
<path d="M176.273 0.462402H182.776C186.166 0.462402 188.447 2.66601 188.447 5.73257C188.447 8.79912 186.182 11.0027 182.776 11.0027H179.294V16.9972H176.273V0.462402ZM179.294 3.17453V8.2906H182.73C184.379 8.2906 185.442 7.30437 185.442 5.73257C185.442 4.16076 184.379 3.17453 182.73 3.17453H179.294Z" fill="white"/>
<path d="M195.058 12.7595L189.032 0.462402H192.345L196.599 9.33847L200.59 0.462402H203.718L196.275 16.9972H193.162L195.058 12.7595Z" fill="white"/>
<path d="M205.937 0.462402H209.127L214.135 6.98076L219.005 0.462402H222.194V16.9972H219.313V4.54601L214.382 11.0336H213.765L208.849 4.63847V16.9972H205.937V0.462402Z" fill="white"/>
<path d="M229.776 10.9719L232.688 6.5647H235.663L232.75 10.9719L235.663 15.564H232.688L229.776 10.9719ZM234.276 10.9719L237.188 6.5647H240.162L237.25 10.9719L240.162 15.564H237.188L234.276 10.9719Z" fill="white"/>
<path d="M242.936 0.462402H245.956V14.2234H253.06V0.462402H256.081V14.2234H258.068V20.9729H255.156V17.0126H242.951V0.462402H242.936Z" fill="white"/>
<path d="M260.811 0.462402H263.693V12.405L271.953 0.462402H274.649V16.9972H271.768V5.06994L263.524 16.9972H260.811V0.462402Z" fill="white"/>
<path d="M285.113 15.4098C280.706 15.3944 277.577 12.6052 277.577 8.53705C277.577 4.46885 280.767 1.67967 285.113 1.67967V0H288.118V1.67967C292.571 1.7259 295.653 4.48426 295.653 8.53705C295.653 12.5898 292.494 15.4098 288.118 15.4098V17.4593H285.113V15.4098ZM285.113 12.6977V4.34557C282.339 4.34557 280.598 6.07148 280.598 8.53705C280.598 11.0026 282.339 12.6977 285.113 12.6977ZM288.118 4.34557V12.6977C290.892 12.6977 292.633 11.0026 292.633 8.53705C292.633 6.07148 290.892 4.34557 288.118 4.34557Z" fill="white"/>
<path d="M298.581 0.462402H305.084C308.474 0.462402 310.755 2.66601 310.755 5.73257C310.755 8.79912 308.49 11.0027 305.084 11.0027H301.601V16.9972H298.581V0.462402ZM301.601 3.17453V8.2906H305.038C306.687 8.2906 307.75 7.30437 307.75 5.73257C307.75 4.16076 306.687 3.17453 305.038 3.17453H301.601Z" fill="white"/>
<path d="M321.202 0.246338C326.103 0.246338 329.555 3.82142 329.555 8.73716C329.555 13.6529 326.087 17.228 321.202 17.228C316.318 17.228 312.85 13.6375 312.85 8.73716C312.85 3.83683 316.318 0.246338 321.202 0.246338ZM321.202 3.02011C318.043 3.02011 315.979 5.28535 315.979 8.72175C315.979 12.1581 318.043 14.4234 321.202 14.4234C324.362 14.4234 326.426 12.1581 326.426 8.72175C326.426 5.28535 324.362 3.02011 321.202 3.02011Z" fill="white"/>
<path d="M332.822 0.462402H339.648C342.53 0.462402 344.456 2.14207 344.456 4.73093C344.456 6.36437 343.686 7.45847 342.407 8.22896C344.256 8.95322 345.227 10.2939 345.227 12.1893C345.227 15.1017 343.162 16.9663 340.049 16.9663H332.822V0.462402ZM335.827 3.02044V7.18109H339.417C340.696 7.18109 341.559 6.36437 341.559 5.06994C341.559 3.77552 340.696 3.02044 339.417 3.02044H335.827ZM335.827 9.83158V14.4391H339.926C341.312 14.4391 342.222 13.5608 342.222 12.1739C342.222 10.787 341.297 9.83158 339.926 9.83158H335.827Z" fill="white"/>
<path d="M352.808 0.462402H356.075L362.378 16.9972H359.188L357.385 12.0352H351.39L349.557 16.9972H346.49L352.824 0.462402H352.808ZM356.383 9.36929L354.38 3.88339L352.346 9.36929H356.383Z" fill="white"/>
<path d="M373.765 16.9972V10.5559H370.73L366.477 16.9972H363.102L367.555 10.2477C365.46 9.73915 364.011 8.15194 364.011 5.50145C364.011 2.46571 366.261 0.447021 369.497 0.447021H376.786V16.9818H373.765V16.9972ZM373.765 7.84374V3.17456H369.574C368.079 3.17456 367.124 4.09915 367.124 5.51686C367.124 6.93456 368.079 7.85915 369.574 7.85915H373.765V7.84374Z" fill="white"/>
<path d="M136.315 26.3355H139.366V40.2043H146.517V26.3355H149.568V40.2043H151.571V47.0001H148.643V42.9935H136.331V26.3201L136.315 26.3355Z" fill="white"/>
<path d="M154.329 26.3354H161.218C164.13 26.3354 166.056 28.0305 166.056 30.6502C166.056 32.2991 165.286 33.4086 163.991 34.1791C165.856 34.9187 166.842 36.2748 166.842 38.1856C166.842 41.1135 164.746 43.0089 161.618 43.0089H154.329V26.3354ZM157.35 28.9089V33.1158H160.971C162.265 33.1158 163.128 32.2991 163.128 30.9892C163.128 29.6794 162.265 28.9243 160.971 28.9243H157.35V28.9089ZM157.35 35.7817V40.42H161.48C162.882 40.42 163.791 39.5263 163.791 38.124C163.791 36.7217 162.851 35.7663 161.48 35.7663H157.35V35.7817Z" fill="white"/>
<path d="M169.955 26.3355H180.973V29.063H172.991V32.9463H178.507V35.6739H172.991V40.2506H181.189V42.9781H169.94V26.3047L169.955 26.3355Z" fill="white"/>
<path d="M187.861 29.14H182.992V26.3354H195.751V29.14H190.912V43.0089H187.861V29.14Z" fill="white"/>
<path d="M198.571 26.3354H201.622V32.8076H209.62V26.3354H212.671V43.0089H209.62V35.6122H201.622V43.0089H198.571V26.3354Z" fill="white"/>
<path d="M221.501 26.3354H224.783L231.148 43.0089H227.927L226.109 38.0007H220.068L218.219 43.0089H215.137L221.516 26.3354H221.501ZM225.107 35.3194L223.088 29.7873L221.039 35.3194H225.107Z" fill="white"/>
<path d="M242.643 43.0091V36.5216H239.577L235.293 43.0091H231.887L236.371 36.2134C234.26 35.7048 232.796 34.1022 232.796 31.4363C232.796 28.3698 235.062 26.3511 238.329 26.3511H245.679V43.0245H242.628L242.643 43.0091ZM242.643 33.7786V29.0632H238.421C236.911 29.0632 235.955 30.0032 235.955 31.4209C235.955 32.8386 236.911 33.7786 238.421 33.7786H242.643Z" fill="white"/>
<path d="M254.894 26.3354H258.115L263.154 32.9155L268.069 26.3354H271.29V43.0089H268.378V30.4499L263.4 36.9836H262.784L257.822 30.5423V43.0089H254.894V26.3354Z" fill="white"/>
<path d="M275.62 26.3355H286.638V29.063H278.656V32.9463H284.173V35.6739H278.656V40.2506H286.854V42.9781H275.605V26.3047L275.62 26.3355Z" fill="white"/>
<path d="M293.511 29.14H288.642V26.3354H301.401V29.14H296.562V43.0089H293.511V29.14Z" fill="white"/>
<path d="M307.133 26.3354H310.416L316.78 43.0089H313.559L311.741 38.0007H305.7L303.851 43.0089H300.769L307.149 26.3354H307.133ZM310.739 35.3194L308.721 29.7873L306.671 35.3194H310.739Z" fill="white"/>
<path d="M318.521 40.3892C320.17 40.3892 320.632 38.3859 320.894 29.9414L321.002 26.3354H332.544V43.0089H329.493V29.14H323.899L323.838 31.0046C323.529 40.2968 322.343 43.2246 318.999 43.2246C318.444 43.2246 317.828 43.0705 317.396 42.8394L317.889 40.2659C318.09 40.3276 318.306 40.3738 318.537 40.3738L318.521 40.3892Z" fill="white"/>
<path d="M335.919 40.3892C337.568 40.3892 338.03 38.3859 338.292 29.9414L338.4 26.3354H349.942V43.0089H346.891V29.14H341.297L341.235 31.0046C340.927 40.2968 339.741 43.2246 336.397 43.2246C335.842 43.2246 335.226 43.0705 334.794 42.8394L335.287 40.2659C335.488 40.3276 335.703 40.3738 335.934 40.3738L335.919 40.3892Z" fill="white"/>
<path d="M358.263 38.7404L352.192 26.3354H355.52L359.804 35.2886L363.826 26.3354H366.985L359.465 43.0089H356.337L358.248 38.7404H358.263Z" fill="white"/>
<path d="M369.235 26.3354H375.784C379.205 26.3354 381.501 28.5545 381.501 31.6518C381.501 34.7492 379.205 36.9682 375.784 36.9682H372.271V43.0089H369.22V26.3354H369.235ZM372.286 29.063V34.2253H375.753C377.418 34.2253 378.481 33.2236 378.481 31.6518C378.481 30.08 377.418 29.0784 375.753 29.0784H372.286V29.063Z" fill="white"/>
<path d="M384.645 26.3354H395.231V29.14H387.696V43.0089H384.645V26.3354Z" fill="white"/>
<path d="M397.851 26.3354H400.764V38.3859L409.1 26.3354H411.812V43.0089H408.9V30.9892L400.594 43.0089H397.866V26.3354H397.851Z" fill="white"/>
<path d="M425.142 43.0091V36.5216H422.075L417.791 43.0091H414.386L418.87 36.2134C416.759 35.7048 415.295 34.1022 415.295 31.4363C415.295 28.3698 417.56 26.3511 420.827 26.3511H428.178V43.0245H425.127L425.142 43.0091ZM425.142 33.7786V29.0632H420.92C419.409 29.0632 418.454 30.0032 418.454 31.4209C418.454 32.8386 419.409 33.7786 420.92 33.7786H425.142Z" fill="white"/>
<path d="M430.982 41.5605L433.91 36.9375L430.982 32.4995H433.987L436.915 36.9375L433.987 41.5605H430.982ZM435.543 41.5605L438.471 36.9375L435.543 32.4995H438.548L441.476 36.9375L438.548 41.5605H435.543Z" fill="white"/>
<path d="M123.988 0H122.447V43.1475H123.988V0Z" fill="white"/>
</svg>
