<svg width="141" height="55" viewBox="0 0 141 55" fill="none" xmlns="http://www.w3.org/2000/svg">
<path d="M21.1444 20.935L23.255 12.6214L27.4372 20.935L31.6193 12.6214L28.4502 0.160645H15.8583L21.1379 20.9028L21.1444 20.9093V20.935Z" fill="white"/>
<path d="M20.9824 20.9094V20.9351H21.3071V20.9094H20.9824ZM21.0668 21.0508H21.0733L21.2162 20.7679H21.2097L21.0668 21.0508ZM15.7027 0.199321L20.9759 20.9415L21.2876 20.8644L16.0144 0.122164L15.7027 0.199321ZM28.4506 0H15.8586V0.321485H28.4506V0ZM31.7755 12.5829L28.6064 0.122164L28.2947 0.199321L31.4638 12.6601L31.7755 12.5829ZM27.5868 21.0058L31.769 12.6922L31.4768 12.5508L27.2946 20.8644L27.5868 21.0058ZM23.1189 12.6922L27.3011 21.0058L27.5933 20.8644L23.4112 12.5508L23.1189 12.6922ZM21.3071 20.9737L23.4242 12.6601L23.1124 12.5829L20.9954 20.8965L21.3071 20.9737ZM21.1512 20.9094H21.3136C21.3136 20.8515 21.2811 20.7936 21.2227 20.7679L21.1512 20.9094ZM21.1447 20.9094L20.9889 20.9479C21.0019 20.993 21.0343 21.0315 21.0733 21.0508L21.1447 20.9094ZM15.8586 0.160742V0C15.8066 0 15.7612 0.0257188 15.7287 0.0642969C15.6962 0.102875 15.6897 0.154313 15.6962 0.199321L15.8521 0.160742H15.8586ZM28.4506 0.160742L28.6064 0.122164C28.5869 0.0514376 28.522 0 28.4506 0V0.160742ZM31.6197 12.6215L31.7625 12.6922C31.782 12.6601 31.782 12.6215 31.7755 12.5829L31.6197 12.6215ZM27.4375 20.9351L27.2946 21.0058C27.3206 21.0572 27.379 21.0958 27.4375 21.0958C27.4959 21.0958 27.5544 21.0637 27.5804 21.0058L27.4375 20.9351ZM23.2553 12.6215L23.3982 12.5508C23.3657 12.4929 23.3008 12.4543 23.2358 12.4607C23.1709 12.4672 23.1124 12.5186 23.093 12.5829L23.2488 12.6215H23.2553ZM21.1382 20.9351H20.9759C20.9759 21.0187 21.0343 21.083 21.1188 21.0958C21.2032 21.1087 21.2746 21.0572 21.2941 20.9737L21.1382 20.9351Z" fill="white"/>
<path d="M33.7367 20.9092H33.7432L39.6787 9.10425H33.386L31.6196 12.6213L33.7302 20.9349L33.7367 20.9092Z" fill="white"/>
<path d="M33.8923 20.9669V20.9412L33.5806 20.8769V20.9026L33.8923 20.9669ZM31.457 12.6597L33.5741 20.9733L33.8858 20.8962L31.7687 12.5826L31.457 12.6597ZM33.2364 9.03338L31.47 12.544L31.7623 12.6854L33.5286 9.17483L33.2364 9.03338ZM39.6785 8.94336H33.3858V9.26484H39.6785V8.94336ZM33.8923 20.9797L39.8279 9.17483L39.5356 9.03338L33.6001 20.8383L33.8923 20.9797ZM33.704 21.0633H33.7105L33.7884 20.7547H33.7819L33.704 21.0633ZM33.7364 20.9347L33.5806 20.9733C33.6001 21.044 33.665 21.0955 33.7429 21.0955C33.8209 21.0955 33.8858 21.0376 33.8988 20.9669L33.7364 20.9347ZM31.6194 12.6211L31.4765 12.5504C31.457 12.5826 31.457 12.6211 31.4635 12.6597L31.6194 12.6211ZM33.3858 9.11053V8.94979C33.3273 8.94979 33.2689 8.98194 33.2429 9.03981L33.3858 9.11053ZM39.6785 9.11053L39.8214 9.18126C39.8473 9.12982 39.8409 9.07195 39.8149 9.02695C39.7824 8.98194 39.7305 8.94979 39.6785 8.94979V9.11053ZM33.7429 20.9154L33.704 21.0698C33.7754 21.0891 33.8533 21.0505 33.8858 20.9862L33.7429 20.9154ZM33.7364 20.9154L33.7754 20.7611C33.7299 20.7483 33.6845 20.7611 33.652 20.7804C33.6131 20.8061 33.5871 20.8447 33.5806 20.8833L33.7429 20.9154H33.7364Z" fill="white"/>
<path d="M33.7299 20.9349L31.6193 12.6213L27.4371 20.9349H33.7299Z" fill="white"/>
<path d="M27.4375 21.0951H33.7302V20.7736H27.4375V21.0951ZM31.4703 12.5501L27.2881 20.8636L27.5804 21.0051L31.7625 12.6915L31.4703 12.5501ZM33.8861 20.8958L31.769 12.5822L31.4573 12.6594L33.5744 20.973L33.8861 20.8958ZM27.431 20.9344L27.2881 20.8636C27.2622 20.9151 27.2687 20.973 27.2946 21.018C27.3271 21.063 27.3791 21.0951 27.431 21.0951V20.9344ZM31.6132 12.6208L31.769 12.5822C31.7496 12.5179 31.6976 12.4665 31.6262 12.46C31.5547 12.4536 31.4963 12.4858 31.4638 12.5501L31.6067 12.6208H31.6132ZM33.7302 20.9344V21.0951C33.7822 21.0951 33.8277 21.0694 33.8601 21.0308C33.8926 20.9922 33.8991 20.9408 33.8926 20.8958L33.7367 20.9344H33.7302Z" fill="white"/>
<path d="M33.7302 33.4086L31.6196 41.7093L27.4374 33.3958L23.2552 41.7093L26.4243 54.1701H39.0098L33.7302 33.4086Z" fill="white"/>
<path d="M39.1657 54.1316L33.886 33.3701L33.5743 33.4473L38.854 54.2088L39.1657 54.1316ZM26.4179 54.3309H39.0033V54.0095H26.4179V54.3309ZM23.0929 41.748L26.262 54.2088L26.5737 54.1316L23.4046 41.6709L23.0929 41.748ZM27.2881 33.3251L23.1059 41.6387L23.3981 41.7802L27.5803 33.4666L27.2881 33.3251ZM31.7625 41.6387L27.5803 33.3251L27.2881 33.4666L31.4702 41.7802L31.7625 41.6387ZM33.5743 33.3637L31.4637 41.6709L31.7754 41.748L33.886 33.4409L33.5743 33.3637ZM33.7302 33.4087H33.5678C33.5678 33.4087 33.5678 33.4344 33.5678 33.4473L33.7237 33.4087H33.7302ZM39.0098 54.1702V54.3309C39.0618 54.3309 39.1072 54.3052 39.1397 54.2666C39.1722 54.2281 39.1787 54.1766 39.1722 54.1316L39.0163 54.1702H39.0098ZM26.4243 54.1702L26.2685 54.2088C26.288 54.2795 26.3529 54.3309 26.4243 54.3309V54.1702ZM23.2552 41.7094L23.1124 41.6387C23.0929 41.6709 23.0929 41.7094 23.0994 41.748L23.2552 41.7094ZM27.4374 33.3958V33.2351C27.379 33.2351 27.3205 33.2673 27.2945 33.3251L27.4374 33.3958ZM27.4374 33.3958L27.5803 33.3251C27.5543 33.2737 27.4959 33.2351 27.4374 33.2351V33.3958ZM31.6196 41.7094L31.4767 41.7802C31.5092 41.838 31.5741 41.8766 31.6391 41.8702C31.704 41.8638 31.7625 41.8123 31.7819 41.748L31.6261 41.7094H31.6196ZM33.7302 33.4023H33.8925C33.8925 33.3187 33.8341 33.2544 33.7496 33.2415C33.6652 33.2287 33.5938 33.2801 33.5743 33.3637L33.7302 33.4023Z" fill="white"/>
<path d="M21.1445 33.4087H21.138L15.1959 45.2265H21.4887L23.255 41.7094L21.1445 33.4087Z" fill="white"/>
<path d="M23.4111 41.6771L21.3006 33.3699L20.9889 33.4471L23.0994 41.7543L23.4111 41.6771ZM21.6318 45.3035L23.3982 41.7928L23.1059 41.6514L21.3395 45.162L21.6318 45.3035ZM15.1962 45.3935H21.4889V45.072H15.1962V45.3935ZM20.9889 33.3442L15.0468 45.162L15.339 45.3035L21.2811 33.4857L20.9889 33.3442ZM21.1772 33.2606H21.1707L21.0928 33.5693H21.0993L21.1772 33.2606ZM21.1382 33.4149L21.2941 33.3764C21.2746 33.2992 21.1967 33.2478 21.1187 33.2542C21.0343 33.2671 20.9759 33.3314 20.9759 33.4149H21.1382ZM23.2488 41.7221L23.3917 41.7928C23.4111 41.7607 23.4111 41.7221 23.4047 41.6835L23.2488 41.7221ZM21.4824 45.2327V45.3935C21.5409 45.3935 21.5993 45.3613 21.6253 45.3035L21.4824 45.2327ZM15.1897 45.2327L15.0468 45.162C15.0208 45.2134 15.0273 45.2713 15.0533 45.3163C15.0858 45.3613 15.1377 45.3935 15.1897 45.3935V45.2327ZM21.1317 33.4149L21.1707 33.2606C21.0993 33.2413 21.0213 33.2799 20.9889 33.3442L21.1317 33.4149ZM21.1382 33.4149L21.0993 33.5693C21.1447 33.5821 21.1967 33.5693 21.2356 33.5371C21.2746 33.505 21.3006 33.46 21.3006 33.4085H21.1382V33.4149Z" fill="white"/>
<path d="M21.1445 33.3958V33.4086L23.2551 41.7093L27.4373 33.3958H21.1445Z" fill="white"/>
<path d="M27.4372 33.2351H21.1445V33.5566H27.4372V33.2351ZM23.4044 41.7802L27.5866 33.4666L27.2944 33.3251L23.1122 41.6387L23.4044 41.7802ZM20.9886 33.4409L23.0992 41.748L23.4109 41.6709L21.3004 33.3637L20.9886 33.4409ZM27.4437 33.3958L27.5866 33.4666C27.6126 33.4151 27.6061 33.3573 27.5801 33.3123C27.5541 33.2673 27.4957 33.2351 27.4437 33.2351V33.3958ZM23.2616 41.7094L23.1057 41.748C23.1252 41.8123 23.1771 41.8638 23.2486 41.8702C23.3135 41.8766 23.3785 41.8445 23.4109 41.7802L23.2681 41.7094H23.2616ZM21.151 33.4023H20.9886C20.9886 33.4023 20.9886 33.428 20.9886 33.4409L21.1445 33.4023H21.151ZM21.151 33.3958V33.2351C21.0601 33.2351 20.9886 33.3058 20.9886 33.3958H21.151Z" fill="white"/>
<path d="M54.7123 15.7139L33.8079 20.9283L42.1268 22.9987L33.73 27.1394V27.178L42.1268 31.3187L54.7123 28.181V15.7139Z" fill="white"/>
<path d="M54.8746 28.1811V15.7139H54.5499V28.1811H54.8746ZM42.1658 31.4731L54.7512 28.3354L54.6733 28.0268L42.0878 31.1645L42.1658 31.4731ZM33.6585 27.326L42.0554 31.4667L42.1982 31.1773L33.8014 27.0366L33.6585 27.326ZM33.5676 27.1395V27.1781H33.8923V27.1395H33.5676ZM42.0554 22.8573L33.6585 26.998L33.8014 27.2874L42.1982 23.1467L42.0554 22.8573ZM33.7689 21.0827L42.0878 23.1531L42.1658 22.8445L33.8469 20.7741L33.7689 21.0827ZM54.6733 15.5596L33.7689 20.7677L33.8469 21.0763L54.7512 15.8682L54.6733 15.5596ZM54.7123 28.1811L54.7512 28.3354C54.8227 28.3161 54.8746 28.2518 54.8746 28.1811H54.7123ZM42.1268 31.3188L42.0554 31.4602C42.0878 31.4795 42.1268 31.4795 42.1658 31.4731L42.1268 31.3188ZM33.73 27.1781H33.5676C33.5676 27.2359 33.6001 27.2938 33.6585 27.3195L33.73 27.1781ZM33.73 27.1395L33.6585 26.998C33.6066 27.0238 33.5676 27.0816 33.5676 27.1395H33.73ZM42.1268 22.9988L42.1982 23.1402C42.2567 23.1081 42.2956 23.0438 42.2891 22.9795C42.2826 22.9152 42.2307 22.8573 42.1658 22.838L42.1268 22.9923V22.9988ZM33.8079 20.9284L33.7689 20.7741C33.6975 20.7934 33.6456 20.8577 33.6456 20.9284C33.6456 20.9991 33.6975 21.0634 33.7689 21.0827L33.8079 20.9284ZM54.7123 15.7204H54.8746C54.8746 15.6689 54.8486 15.6239 54.8097 15.5918C54.7707 15.5596 54.7188 15.5532 54.6733 15.5596L54.7123 15.7139V15.7204Z" fill="white"/>
<path d="M33.73 33.4087L45.679 39.2983V33.068L42.1268 31.3191L33.73 33.4087Z" fill="white"/>
<path d="M42.0881 31.1581L33.6913 33.2542L33.7692 33.5628L42.166 31.4668L42.0881 31.1581ZM45.7507 32.9199L42.205 31.171L42.0621 31.4603L45.6079 33.2092L45.7507 32.9199ZM45.8417 39.2981V33.0678H45.517V39.2981H45.8417ZM33.6588 33.5564L45.6079 39.446L45.7507 39.1567L33.8017 33.2671L33.6588 33.5564ZM33.7302 33.4085L33.6913 33.2542C33.6198 33.2735 33.5679 33.3378 33.5679 33.4085H33.7302ZM42.1271 31.3125L42.1985 31.171C42.166 31.1517 42.1271 31.1517 42.0881 31.1581L42.1271 31.3125ZM45.6728 33.0613H45.8352C45.8352 33.0035 45.8027 32.9456 45.7442 32.9199L45.6728 33.0613ZM45.6728 39.2917L45.6014 39.4332C45.6533 39.4589 45.7118 39.4524 45.7572 39.4267C45.8027 39.3946 45.8352 39.3431 45.8352 39.2917H45.6728ZM33.7238 33.4021H33.5614C33.5614 33.46 33.5939 33.5178 33.6523 33.5436L33.7238 33.4021Z" fill="white"/>
<path d="M33.8923 33.4085C33.8923 33.3185 33.8209 33.2478 33.73 33.2478C33.6391 33.2478 33.5676 33.3185 33.5676 33.4085H33.8923ZM33.5676 33.4085C33.5676 33.4986 33.6391 33.5693 33.73 33.5693C33.8209 33.5693 33.8923 33.4986 33.8923 33.4085H33.5676Z" fill="white"/>
<path d="M33.73 33.3957H33.7365L33.73 33.4086L42.1268 31.3189L33.73 27.1782V33.3957Z" fill="white"/>
<path d="M33.5679 27.1778V33.3954H33.8926V27.1778H33.5679ZM42.1985 31.1707L33.8017 27.03L33.6588 27.3193L42.0556 31.46L42.1985 31.1707ZM33.7692 33.5625L42.166 31.4665L42.0881 31.1578L33.6913 33.2539L33.7692 33.5625ZM33.7238 27.1778L33.7952 27.0364C33.7432 27.0107 33.6848 27.0171 33.6393 27.0428C33.5939 27.075 33.5614 27.1264 33.5614 27.1778H33.7238ZM42.1206 31.3186L42.1595 31.4729C42.2245 31.4536 42.2764 31.4022 42.2829 31.3314C42.2894 31.2671 42.2569 31.2028 42.192 31.1707L42.1206 31.3121V31.3186ZM33.7238 33.4146H33.5614C33.5614 33.4661 33.5874 33.5111 33.6263 33.5432C33.6653 33.5754 33.7173 33.5818 33.7627 33.5754L33.7238 33.4211V33.4146ZM33.7238 33.4146L33.5614 33.3825C33.5614 33.3825 33.5614 33.4018 33.5614 33.4146H33.7238ZM33.7238 33.4082L33.8861 33.4404C33.8926 33.3954 33.8861 33.3439 33.8536 33.3053C33.8212 33.2668 33.7757 33.2475 33.7302 33.2475V33.4082H33.7238ZM33.7238 33.4082H33.5614C33.5614 33.4982 33.6328 33.569 33.7238 33.569V33.4082Z" fill="white"/>
<path d="M33.8923 33.4085C33.8923 33.3185 33.8209 33.2478 33.73 33.2478C33.6391 33.2478 33.5676 33.3185 33.5676 33.4085H33.8923ZM33.5676 33.4085C33.5676 33.4986 33.6391 33.5693 33.73 33.5693C33.8209 33.5693 33.8923 33.4986 33.8923 33.4085H33.5676Z" fill="white"/>
<path d="M21.1449 27.1781V27.1395L12.7481 22.9988L0.162598 26.1365V38.5972L21.0605 33.3892L12.7481 31.3188L21.1449 27.1781Z" fill="white"/>
<path d="M12.8193 31.4602L21.2161 27.3195L21.0732 27.0302L12.6764 31.1709L12.8193 31.4602ZM21.1057 33.2348L12.7868 31.158L12.7089 31.4666L21.0277 33.5434L21.1057 33.2348ZM0.201316 38.7579L21.0992 33.5499L21.0212 33.2412L0.123387 38.4429L0.201316 38.7515V38.7579ZM0 26.1364V38.5972H0.324703V26.1364H0ZM12.7089 22.8444L0.123387 25.9821L0.201316 26.2907L12.7868 23.153L12.7089 22.8444ZM21.2161 26.998L12.8193 22.8573L12.6764 23.1466L21.0732 27.2873L21.2161 26.998ZM21.307 27.1845V27.1459H20.9823V27.1845H21.307ZM12.7478 31.3252L12.6764 31.1837C12.6179 31.2159 12.579 31.2802 12.5855 31.3445C12.592 31.4088 12.6439 31.4666 12.7089 31.4859L12.7478 31.3316V31.3252ZM21.0667 33.402L21.1057 33.5563C21.1771 33.537 21.2291 33.4727 21.2291 33.402C21.2291 33.3313 21.1771 33.267 21.1057 33.2477L21.0667 33.402ZM0.162351 38.5972H0C0 38.6486 0.0259762 38.6936 0.0649405 38.7258C0.103905 38.7579 0.155857 38.7643 0.201316 38.7579L0.162351 38.6036V38.5972ZM0.162351 26.1364L0.123387 25.9821C0.0519524 26.0014 0 26.0657 0 26.1364H0.162351ZM12.7478 22.9987L12.8193 22.8573C12.7868 22.838 12.7478 22.838 12.7089 22.8444L12.7478 22.9987ZM21.1446 27.1395H21.307C21.307 27.0816 21.2745 27.0237 21.2161 26.998L21.1446 27.1395ZM21.1446 27.178L21.2161 27.3195C21.268 27.2938 21.307 27.2359 21.307 27.178H21.1446Z" fill="white"/>
<path d="M21.138 20.9029L9.19543 15.0198V21.2501L12.7477 22.999L21.138 20.9094V20.9029Z" fill="white"/>
<path d="M12.7871 23.153L21.1774 21.0634L21.0995 20.7548L12.7092 22.8444L12.7871 23.153ZM9.12449 21.3913L12.6702 23.1402L12.8131 22.8509L9.26736 21.102L9.12449 21.3913ZM9.03357 15.0131V21.2434H9.35827V15.0131H9.03357ZM21.2099 20.7548L9.26736 14.8716L9.12449 15.1609L21.067 21.0441L21.2099 20.7548ZM21.1385 20.9027L21.1774 21.057C21.2229 21.0441 21.2554 21.0184 21.2814 20.9798C21.3008 20.9412 21.3073 20.8962 21.2943 20.8512L21.1385 20.9027ZM12.7482 22.9923L12.6767 23.1338C12.7092 23.153 12.7482 23.153 12.7871 23.1466L12.7482 22.9923ZM9.20241 21.2434H9.04006C9.04006 21.3013 9.07253 21.3592 9.13098 21.3849L9.20241 21.2434ZM9.20241 15.0131L9.27385 14.8716C9.2219 14.8459 9.16345 14.8523 9.11799 14.878C9.07253 14.9102 9.04006 14.9616 9.04006 15.0131H9.20241ZM21.1385 20.8962L21.2943 20.8448C21.2814 20.8062 21.2489 20.7676 21.2099 20.7548L21.1385 20.8962Z" fill="white"/>
<path d="M21.1436 20.9028H21.1381V20.9083L21.1436 20.9028Z" fill="white"/>
<path d="M21.2161 20.7616H21.2096L21.0602 21.0445H21.0667L21.2161 20.7616ZM21.1381 20.9031L20.9823 20.9545C20.9953 20.9931 21.0277 21.0317 21.0667 21.051C21.1057 21.0703 21.1511 21.0703 21.1901 21.0574L21.1381 20.9031ZM21.1381 20.9031L21.2096 20.7616C21.1511 20.7295 21.0797 20.7423 21.0277 20.7809C20.9758 20.8259 20.9563 20.8902 20.9758 20.9545L21.1317 20.9031H21.1381ZM21.1446 20.9031L21.1966 21.0574C21.255 21.0381 21.3005 20.9802 21.307 20.9159C21.307 20.8516 21.2745 20.7938 21.2226 20.7616L21.1511 20.9031H21.1446Z" fill="white"/>
<path d="M21.1449 20.9351L21.1384 20.9094L12.748 22.9991L21.1449 27.1398V20.9351Z" fill="white"/>
<path d="M21.3071 27.1396V20.935H20.9824V27.1396H21.3071ZM12.6765 23.1468L21.0733 27.2875L21.2162 26.9982L12.8193 22.8574L12.6765 23.1468ZM21.0993 20.7549L12.7089 22.8446L12.7869 23.1532L21.1772 21.0636L21.0993 20.7549ZM21.3006 20.9028V20.8771L20.9759 20.9414V20.9671L21.3006 20.9028ZM21.1382 27.1396L21.0668 27.2811C21.1187 27.3068 21.1772 27.3004 21.2226 27.2746C21.2681 27.2425 21.3006 27.1911 21.3006 27.1396H21.1382ZM12.7414 22.9989L12.7024 22.8446C12.6375 22.8639 12.5856 22.9153 12.5791 22.986C12.5726 23.0568 12.605 23.1146 12.67 23.1468L12.7414 23.0053V22.9989ZM21.1317 20.9092L21.2941 20.8771C21.2876 20.8321 21.2616 20.7935 21.2226 20.7742C21.1837 20.7549 21.1382 20.7421 21.0993 20.7549L21.1382 20.9092H21.1317ZM21.1317 20.935H21.2941C21.2941 20.935 21.2941 20.9157 21.2941 20.9028L21.1317 20.935Z" fill="white"/>
<path d="M33.7369 33.4022V33.2415C33.6849 33.2415 33.633 33.2672 33.6005 33.3122C33.568 33.3572 33.5615 33.4151 33.581 33.4601L33.7304 33.4022H33.7369ZM33.7369 33.4022H33.8992C33.8992 33.3122 33.8278 33.2415 33.7369 33.2415V33.4022ZM33.7369 33.4086L33.5875 33.4665C33.6135 33.5372 33.6914 33.5822 33.7694 33.5629C33.8473 33.5501 33.8992 33.4794 33.8992 33.4022H33.7369V33.4086Z" fill="white"/>
<path d="M33.73 33.4093L33.7368 33.3958H33.73V33.4093Z" fill="white"/>
<path d="M33.7238 33.3958V33.2351C33.6328 33.2351 33.5614 33.3058 33.5614 33.3958H33.7238ZM33.7238 33.3958L33.8861 33.428C33.8926 33.383 33.8861 33.3316 33.8536 33.293C33.8212 33.2544 33.7757 33.2351 33.7302 33.2351V33.3958H33.7238ZM33.7238 33.4023H33.5614C33.5614 33.4859 33.6263 33.5566 33.7108 33.563C33.7952 33.5695 33.8666 33.518 33.8861 33.4344L33.7238 33.4023Z" fill="white"/>
<path d="M21.1441 33.3956V33.3701L21.0604 33.3892L21.1376 33.4083V33.3956H21.1441Z" fill="white"/>
<path d="M21.2809 33.4794V33.4666L20.9951 33.3251V33.338L21.2809 33.4794ZM21.0276 33.5502L21.099 33.5695L21.1705 33.2544L21.099 33.2351L21.0276 33.5502ZM21.099 33.2158L21.0211 33.2351L21.1055 33.5437L21.1835 33.5244L21.099 33.2158ZM21.3068 33.4023V33.3766H20.9821V33.4023H21.3068ZM21.1445 33.4023V33.2415C21.086 33.2415 21.0276 33.2737 21.0016 33.3316L21.1445 33.4023ZM21.1445 33.4151L21.1055 33.5695C21.177 33.5887 21.2549 33.5502 21.2874 33.4859L21.1445 33.4151ZM21.0731 33.3959L21.0276 33.2415C20.9562 33.2608 20.9042 33.3251 20.9107 33.4023C20.9107 33.473 20.9627 33.5373 21.0341 33.5566L21.0731 33.4023V33.3959ZM21.151 33.3766H21.3133C21.3133 33.3251 21.2874 33.2801 21.2484 33.248C21.2094 33.2158 21.1575 33.2094 21.1055 33.2222L21.151 33.3766ZM21.151 33.4023V33.563C21.2419 33.563 21.3133 33.4923 21.3133 33.4023H21.151Z" fill="white"/>
<path d="M21.1449 33.4093L21.1381 33.3958V33.4093H21.1449Z" fill="white"/>
<path d="M21.1377 33.4024L21.0988 33.5567C21.1442 33.5695 21.1962 33.5567 21.2416 33.531C21.2806 33.4988 21.3066 33.4538 21.3066 33.4024H21.1442H21.1377ZM21.1377 33.4024L20.9884 33.3316C20.9689 33.3766 20.9689 33.4281 20.9884 33.4667C21.0078 33.5117 21.0468 33.5438 21.0923 33.5567L21.1312 33.4024H21.1377ZM21.1377 33.3959L21.3001 33.3638C21.2871 33.2931 21.2286 33.2416 21.1637 33.2352C21.0923 33.2288 21.0273 33.2609 20.9949 33.3252L21.1442 33.3959H21.1377ZM21.1377 33.4024H21.3001C21.3001 33.4024 21.3001 33.3831 21.3001 33.3702L21.1377 33.4024Z" fill="white"/>
<path d="M21.1449 33.4093V33.3958H21.1381L21.1449 33.4093Z" fill="white"/>
<path d="M21.1449 33.3958V33.2351C21.0994 33.2351 21.0475 33.2544 21.0215 33.293C20.9955 33.3316 20.976 33.3766 20.989 33.428L21.1514 33.3958H21.1449ZM21.1449 33.3958H21.3072C21.3072 33.3058 21.2358 33.2351 21.1449 33.2351V33.3958ZM21.1449 33.4023L20.9825 33.4344C21.002 33.518 21.0735 33.5695 21.1579 33.563C21.2423 33.5566 21.3072 33.4859 21.3072 33.4023H21.1449Z" fill="white"/>
<path d="M33.73 20.9476L33.8061 20.9285L33.7427 20.9094L33.73 20.9349V20.9476Z" fill="white"/>
<path d="M33.5676 20.9349V20.9478H33.8923V20.9349H33.5676ZM33.5936 20.8385L33.5806 20.8642L33.8728 21.0056L33.8858 20.9799L33.5936 20.8385ZM33.8469 20.7742L33.7819 20.7549L33.704 21.0699L33.7689 21.0892L33.8469 20.7742ZM33.7689 21.1085L33.8469 21.0892L33.7689 20.7806L33.691 20.7999L33.7689 21.1085ZM33.73 20.9413L33.5871 20.8706C33.5871 20.8706 33.5676 20.9156 33.5676 20.9413H33.73ZM33.743 20.9156L33.7819 20.7613C33.7105 20.742 33.6326 20.7806 33.6001 20.8449L33.743 20.9156ZM33.8079 20.9349L33.8469 21.0892C33.9183 21.0699 33.9703 21.0056 33.9703 20.9349C33.9703 20.8642 33.9183 20.7999 33.8469 20.7806L33.8079 20.9349ZM33.73 20.9542H33.5676C33.5676 21.0056 33.5936 21.0507 33.6326 21.0828C33.6715 21.1149 33.7235 21.1214 33.7754 21.1085L33.7365 20.9542H33.73Z" fill="white"/>
<path d="M33.73 20.9355L33.7431 20.9094H33.7365L33.73 20.9355Z" fill="white"/>
<path d="M33.5807 20.8769V20.9026L33.8924 20.9669V20.9412L33.5807 20.8769ZM33.7885 20.7547H33.782L33.7041 21.0633H33.7106L33.7885 20.7547ZM33.8859 21.0055L33.8989 20.9798L33.6067 20.8383L33.5937 20.864L33.8859 21.0055ZM33.7431 20.909L33.782 20.7547C33.7366 20.7419 33.6911 20.7547 33.6587 20.774C33.6197 20.7997 33.5937 20.8383 33.5872 20.8769L33.7496 20.909H33.7431ZM33.7496 20.909L33.8924 20.9798C33.9119 20.9348 33.9119 20.8833 33.8924 20.8383C33.873 20.7933 33.834 20.7612 33.782 20.7483L33.7431 20.9026L33.7496 20.909ZM33.7366 20.9348L33.5742 20.9026C33.5612 20.9798 33.6067 21.0569 33.6781 21.0891C33.7561 21.1148 33.8405 21.0826 33.873 21.0055L33.7301 20.9348H33.7366Z" fill="white"/>
<path d="M21.1381 20.9094L21.1446 20.9355V20.9094H21.1381Z" fill="white"/>
<path d="M21.3071 20.9351V20.9094H20.9824V20.9351H21.3071ZM20.9824 20.9415V20.9672L21.3071 20.9029V20.8772L20.9824 20.9415ZM21.1448 20.9094H21.3071C21.3071 20.8579 21.2812 20.8065 21.2422 20.7808C21.2032 20.7551 21.1448 20.7422 21.0928 20.7615L21.1448 20.9158V20.9094ZM21.1448 20.9351L20.9824 20.9672C21.0019 21.0508 21.0733 21.1023 21.1578 21.0958C21.2422 21.0894 21.3071 21.0187 21.3071 20.9351H21.1448ZM21.1448 20.9094L21.0928 20.7551C21.0149 20.7808 20.9694 20.8579 20.9824 20.9415L21.1448 20.9094Z" fill="white"/>
<path d="M128.334 46.8878H133.886V38.3155L128.334 46.8878ZM133.886 54.6874V50.2474H124.383V47.1087L132.93 33.8676H137.558V46.8878H140.529V50.2474H137.558V54.6874H133.886ZM122.567 51.1622V54.6874H108.692V51.6906L112.842 47.6922C117.214 43.5598 118.306 41.9195 118.306 40.0899C118.306 38.2603 117.159 37.0063 115.223 37.0063C113.598 37.0063 111.997 38.0079 111.75 40.2555L108.047 39.5378C108.716 35.5947 111.75 33.5995 115.39 33.5995C119.485 33.5995 122.145 36.2335 122.145 39.9795C122.145 42.8106 120.488 44.8926 115.813 49.3878L113.989 51.1622H122.567ZM97.7395 37.0063C94.8561 37.0063 93.6773 39.9243 93.6773 44.2223C93.6773 48.5203 94.8243 51.5486 97.7395 51.5486C100.655 51.5486 101.746 48.6307 101.746 44.2223C101.746 39.8139 100.567 37.0063 97.7395 37.0063ZM97.7395 54.9634C92.9764 54.9634 89.862 51.0202 89.862 44.2223C89.862 37.4243 92.9764 33.5916 97.7395 33.5916C102.503 33.5916 105.585 37.5032 105.585 44.2223C105.585 50.9414 102.471 54.9634 97.7395 54.9634ZM86.9228 51.1622V54.6874H73.0474V51.6906L77.1973 47.6922C81.5702 43.5598 82.6614 41.9195 82.6614 40.0899C82.6614 38.2603 81.5144 37.0063 79.5789 37.0063C77.954 37.0063 76.353 38.0079 76.106 40.2555L72.4022 39.5378C73.0713 35.5947 76.106 33.5995 79.7461 33.5995C83.8403 33.5995 86.5006 36.2335 86.5006 39.9795C86.5006 42.8106 84.8439 44.8926 80.1683 49.3878L78.3443 51.1622H86.9228ZM119.779 21.565V0.753174H123.842L130.206 8.97066L136.403 0.753174H140.465V21.565H136.793V5.88713L130.516 14.0494H129.728L123.475 5.99754V21.565H119.771H119.779ZM97.0625 21.565V0.753174H100.902V18.0714H109.926V0.753174H113.766V18.0714H116.291V26.5649H112.587V21.5729H97.0545L97.0625 21.565ZM74.3457 21.565V0.753174H78.185V18.0714H87.2095V0.753174H91.0488V18.0714H93.5737V26.5649H89.8699V21.5729H74.3378L74.3457 21.565Z" fill="white"/>
</svg>
