<svg width="48" height="48" viewBox="0 0 48 48" fill="none" xmlns="http://www.w3.org/2000/svg">
<circle cx="24" cy="24" r="24" fill="#272D57"/>
<path d="M36.3619 18.085C36.5542 17.46 36.3619 17 35.4366 17H32.3751C31.5954 17 31.2367 17.395 31.0444 17.835C31.0444 17.835 29.485 21.49 27.2811 23.86C26.569 24.545 26.2415 24.765 25.8517 24.765C25.6593 24.765 25.3631 24.545 25.3631 23.92V18.085C25.3631 17.335 25.1447 17 24.5002 17H19.6869C19.1983 17 18.9072 17.35 18.9072 17.675C18.9072 18.385 20.0092 18.55 20.1236 20.55V24.89C20.1236 25.84 19.9468 26.015 19.557 26.015C18.5174 26.015 15.9912 22.345 14.4942 18.145C14.1927 17.33 13.8964 17 13.1116 17H10.05C9.17673 17 9 17.395 9 17.835C9 18.615 10.0396 22.49 13.8393 27.61C16.3707 31.105 19.9364 33 23.1799 33C25.1292 33 25.3683 32.58 25.3683 31.855C25.3683 28.515 25.1915 28.2 26.1687 28.2C26.621 28.2 27.4006 28.42 29.2199 30.105C31.2991 32.105 31.6422 33 32.8065 33H35.8681C36.7413 33 37.1831 32.58 36.9284 31.75C36.3463 30.005 32.4114 26.415 32.2347 26.175C31.7825 25.615 31.9124 25.365 32.2347 24.865C32.2399 24.86 35.9772 19.8 36.3619 18.085Z" fill="white"/>
</svg>
